<svg xmlns="http://www.w3.org/2000/svg" xmlns:xlink="http://www.w3.org/1999/xlink" version="1.1" width="256" height="256" viewBox="0 0 256 256" xml:space="preserve">

<defs>
</defs>
<g style="stroke: none; stroke-width: 0; stroke-dasharray: none; stroke-linecap: butt; stroke-linejoin: miter; stroke-miterlimit: 10; fill: none; fill-rule: nonzero; opacity: 1;" transform="translate(1.4065934065934016 1.4065934065934016) scale(2.81 2.81)" >
	<path d="M 85.053 43.473 H 73.324 v -9.227 l 0.148 -0.07 v -6.53 c 0 -2.486 -2.015 -4.501 -4.501 -4.501 H 49.486 c -2.694 0 -5.286 -1.037 -7.236 -2.896 l -9.412 -8.971 c -1.95 -1.859 -4.542 -2.896 -7.236 -2.896 h -20.1 C 3.015 8.382 1 10.397 1 12.883 v 10.262 v 54.446 c 0 2.224 1.803 4.027 4.027 4.027 h 62.546 c 2.389 0 4.582 -1.322 5.698 -3.435 l 15.267 -28.929 C 89.924 46.629 88.021 43.473 85.053 43.473 z" style="stroke: none; stroke-width: 1; stroke-dasharray: none; stroke-linecap: butt; stroke-linejoin: miter; stroke-miterlimit: 10; fill: rgb(255,196,49); fill-rule: nonzero; opacity: 1;" transform=" matrix(1 0 0 1 0 0) " stroke-linecap="round" />
	<path d="M 62.398 43.473 v -9.297 H 10.325 v 12.272 v 15.145 l 8.473 -14.432 c 1.341 -2.285 3.793 -3.688 6.442 -3.688 H 62.398 z" style="stroke: none; stroke-width: 1; stroke-dasharray: none; stroke-linecap: butt; stroke-linejoin: miter; stroke-miterlimit: 10; fill: rgb(226,222,208); fill-rule: nonzero; opacity: 1;" transform=" matrix(1 0 0 1 0 0) " stroke-linecap="round" />
	<path d="M 67.574 82.618 H 5.028 C 2.256 82.618 0 80.363 0 77.591 V 12.883 C 0 9.85 2.468 7.382 5.501 7.382 h 20.1 c 2.965 0 5.78 1.126 7.926 3.172 l 9.412 8.971 c 1.773 1.689 4.098 2.62 6.547 2.62 h 19.484 c 3.033 0 5.501 2.468 5.501 5.501 v 6.53 c 0 0.552 -0.447 1 -1 1 c -0.553 0 -1 -0.448 -1 -1 v -6.53 c 0 -1.931 -1.57 -3.501 -3.501 -3.501 H 49.486 c -2.965 0 -5.78 -1.126 -7.927 -3.172 l -9.412 -8.971 c -1.773 -1.689 -4.098 -2.62 -6.546 -2.62 h -20.1 C 3.571 9.382 2 10.952 2 12.883 v 64.708 c 0 1.669 1.358 3.027 3.027 3.027 h 62.546 c 2.024 0 3.868 -1.112 4.812 -2.902 l 15.267 -28.929 c 0.485 -0.92 0.455 -2.001 -0.082 -2.891 c -0.537 -0.891 -1.479 -1.422 -2.519 -1.422 H 25.053 c -2.069 0 -4.012 1.104 -5.071 2.88 L 8.961 65.833 c -0.283 0.475 -0.896 0.633 -1.371 0.347 c -0.474 -0.282 -0.629 -0.896 -0.347 -1.37 l 11.021 -18.48 c 1.418 -2.379 4.02 -3.856 6.789 -3.856 h 60.001 c 1.747 0 3.329 0.893 4.231 2.39 c 0.902 1.496 0.954 3.312 0.139 4.857 L 74.156 78.649 C 72.864 81.097 70.342 82.618 67.574 82.618 z" style="stroke: none; stroke-width: 1; stroke-dasharray: none; stroke-linecap: butt; stroke-linejoin: miter; stroke-miterlimit: 10; fill: rgb(0,0,0); fill-rule: nonzero; opacity: 1;" transform=" matrix(1 0 0 1 0 0) " stroke-linecap="round" />
	<path d="M 10.325 47.448 c -0.552 0 -1 -0.447 -1 -1 V 34.176 c 0 -0.552 0.448 -1 1 -1 h 52.073 c 0.553 0 1 0.448 1 1 s -0.447 1 -1 1 H 11.325 v 11.272 C 11.325 47.001 10.878 47.448 10.325 47.448 z" style="stroke: none; stroke-width: 1; stroke-dasharray: none; stroke-linecap: butt; stroke-linejoin: miter; stroke-miterlimit: 10; fill: rgb(0,0,0); fill-rule: nonzero; opacity: 1;" transform=" matrix(1 0 0 1 0 0) " stroke-linecap="round" />
</g>
</svg>